<mxfile host="65bd71144e">
    <diagram id="57k0my2M7IkiMMH7IKEr" name="Página-1">
        <mxGraphModel dx="866" dy="2066" grid="1" gridSize="10" guides="1" tooltips="1" connect="1" arrows="1" fold="1" page="1" pageScale="1" pageWidth="827" pageHeight="1169" math="0" shadow="0">
            <root>
                <mxCell id="0"/>
                <mxCell id="1" parent="0"/>
                <mxCell id="17" value="tx" style="edgeStyle=none;html=1;exitX=0.5;exitY=1;exitDx=0;exitDy=0;entryX=1;entryY=0.5;entryDx=0;entryDy=0;fontSize=21;" edge="1" parent="1" source="2" target="16">
                    <mxGeometry x="0.75" y="20" relative="1" as="geometry">
                        <mxPoint as="offset"/>
                    </mxGeometry>
                </mxCell>
                <mxCell id="2" value="&lt;font style=&quot;font-size: 21px&quot;&gt;Cliente&lt;/font&gt;" style="rounded=0;whiteSpace=wrap;html=1;" vertex="1" parent="1">
                    <mxGeometry x="180" y="-230" width="260" height="190" as="geometry"/>
                </mxCell>
                <mxCell id="37" style="edgeStyle=orthogonalEdgeStyle;html=1;entryX=1;entryY=0.25;entryDx=0;entryDy=0;fontSize=21;fontColor=#FFFFFF;endArrow=none;endFill=0;strokeWidth=1;" edge="1" parent="1" source="15" target="2">
                    <mxGeometry relative="1" as="geometry"/>
                </mxCell>
                <mxCell id="15" value="&lt;font color=&quot;#ffffff&quot;&gt;&lt;span style=&quot;white-space: pre&quot;&gt;&#9;&lt;/span&gt;codigoCliente&lt;/font&gt;" style="ellipse;whiteSpace=wrap;html=1;aspect=fixed;fontSize=21;align=left;labelBackgroundColor=none;strokeColor=#FFFFFF;fillColor=#000000;strokeWidth=1;fontColor=#333333;" vertex="1" parent="1">
                    <mxGeometry x="480" y="-190" width="40" height="40" as="geometry"/>
                </mxCell>
                <mxCell id="18" style="edgeStyle=none;html=1;exitX=0.029;exitY=0.032;exitDx=0;exitDy=0;entryX=0.5;entryY=0;entryDx=0;entryDy=0;fontSize=21;exitPerimeter=0;" edge="1" parent="1" source="16" target="8">
                    <mxGeometry relative="1" as="geometry"/>
                </mxCell>
                <mxCell id="19" style="edgeStyle=none;html=1;exitX=0.029;exitY=0.943;exitDx=0;exitDy=0;entryX=0.5;entryY=0;entryDx=0;entryDy=0;fontSize=21;exitPerimeter=0;" edge="1" parent="1" source="16" target="13">
                    <mxGeometry relative="1" as="geometry"/>
                </mxCell>
                <mxCell id="16" value="" style="triangle;whiteSpace=wrap;html=1;labelBackgroundColor=none;fontSize=21;strokeColor=#000000;strokeWidth=6;fillColor=#FFFFFF;rotation=-90;" vertex="1" parent="1">
                    <mxGeometry x="280" y="30" width="60" height="80" as="geometry"/>
                </mxCell>
                <mxCell id="33" style="edgeStyle=orthogonalEdgeStyle;html=1;fontSize=21;fontColor=#FFFFFF;strokeWidth=1;strokeColor=none;endArrow=none;endFill=0;" edge="1" parent="1" source="9" target="13">
                    <mxGeometry relative="1" as="geometry"/>
                </mxCell>
                <mxCell id="34" value="" style="edgeStyle=orthogonalEdgeStyle;html=1;fontSize=21;fontColor=#FFFFFF;endArrow=none;endFill=0;strokeWidth=1;" edge="1" parent="1" source="9" target="13">
                    <mxGeometry relative="1" as="geometry"/>
                </mxCell>
                <mxCell id="9" value="&lt;span style=&quot;white-space: pre&quot;&gt;&#9;&lt;/span&gt;CPF" style="ellipse;whiteSpace=wrap;html=1;aspect=fixed;fontSize=21;align=left;strokeWidth=1;strokeColor=#FFFFFF;fillColor=#000000;" vertex="1" parent="1">
                    <mxGeometry x="450" y="320" width="30" height="30" as="geometry"/>
                </mxCell>
                <mxCell id="32" style="edgeStyle=orthogonalEdgeStyle;html=1;entryX=0.842;entryY=-0.004;entryDx=0;entryDy=0;entryPerimeter=0;fontSize=21;fontColor=#FFFFFF;strokeWidth=1;" edge="1" parent="1" source="10" target="13">
                    <mxGeometry relative="1" as="geometry"/>
                </mxCell>
                <mxCell id="10" value="&lt;span style=&quot;white-space: pre&quot;&gt;&#9;&lt;/span&gt;Nome" style="ellipse;whiteSpace=wrap;html=1;aspect=fixed;fontSize=21;align=left;strokeWidth=1;strokeColor=#000000;fillColor=#FFFFFF;" vertex="1" parent="1">
                    <mxGeometry x="540" y="100" width="30" height="30" as="geometry"/>
                </mxCell>
                <mxCell id="13" value="Pessoa Física" style="rounded=0;whiteSpace=wrap;html=1;fontSize=21;" vertex="1" parent="1">
                    <mxGeometry x="380" y="190" width="210" height="80" as="geometry"/>
                </mxCell>
                <mxCell id="29" value="" style="edgeStyle=orthogonalEdgeStyle;html=1;fontSize=21;fontColor=#FFFFFF;strokeWidth=1;endArrow=none;endFill=0;" edge="1" parent="1" source="3" target="8">
                    <mxGeometry relative="1" as="geometry"/>
                </mxCell>
                <mxCell id="3" value="&lt;font color=&quot;#ffffff&quot;&gt;&lt;span style=&quot;white-space: pre&quot;&gt;&#9;&lt;/span&gt;CNPJ&lt;/font&gt;" style="ellipse;whiteSpace=wrap;html=1;aspect=fixed;fontSize=21;align=left;strokeWidth=1;fillColor=#000000;fontColor=#333333;strokeColor=#FFFFFF;" vertex="1" parent="1">
                    <mxGeometry x="60" y="320" width="30" height="30" as="geometry"/>
                </mxCell>
                <mxCell id="30" style="edgeStyle=orthogonalEdgeStyle;html=1;entryX=0;entryY=0.5;entryDx=0;entryDy=0;fontSize=21;fontColor=#FFFFFF;strokeWidth=1;endArrow=none;endFill=0;" edge="1" parent="1" source="4" target="8">
                    <mxGeometry relative="1" as="geometry"/>
                </mxCell>
                <mxCell id="4" value="&lt;span style=&quot;white-space: pre&quot;&gt;&#9;&lt;/span&gt;RazaoSocial" style="ellipse;whiteSpace=wrap;html=1;aspect=fixed;fontSize=21;align=left;strokeWidth=1;strokeColor=#000000;fillColor=#FFFFFF;" vertex="1" parent="1">
                    <mxGeometry x="20" y="110" width="30" height="30" as="geometry"/>
                </mxCell>
                <mxCell id="8" value="Pessoa Juridica" style="rounded=0;whiteSpace=wrap;html=1;fontSize=21;" vertex="1" parent="1">
                    <mxGeometry x="50" y="190" width="210" height="80" as="geometry"/>
                </mxCell>
                <mxCell id="35" style="edgeStyle=orthogonalEdgeStyle;html=1;entryX=0.999;entryY=0.818;entryDx=0;entryDy=0;entryPerimeter=0;fontSize=21;fontColor=#FFFFFF;endArrow=none;endFill=0;strokeWidth=1;" edge="1" parent="1" source="22" target="2">
                    <mxGeometry relative="1" as="geometry"/>
                </mxCell>
                <mxCell id="22" value="&lt;span style=&quot;white-space: pre&quot;&gt;&#9;&lt;/span&gt;Telefone" style="ellipse;whiteSpace=wrap;html=1;aspect=fixed;fontSize=21;align=left;strokeWidth=1;fillColor=#FFFFFF;strokeColor=#000000;" vertex="1" parent="1">
                    <mxGeometry x="485" y="-90" width="30" height="30" as="geometry"/>
                </mxCell>
                <mxCell id="36" style="edgeStyle=orthogonalEdgeStyle;html=1;entryX=0.999;entryY=0.623;entryDx=0;entryDy=0;entryPerimeter=0;fontSize=21;fontColor=#FFFFFF;endArrow=none;endFill=0;strokeWidth=1;" edge="1" parent="1" source="23" target="2">
                    <mxGeometry relative="1" as="geometry"/>
                </mxCell>
                <mxCell id="23" value="&lt;span style=&quot;white-space: pre&quot;&gt;&#9;&lt;/span&gt;Endereco" style="ellipse;whiteSpace=wrap;html=1;aspect=fixed;fontSize=21;align=left;strokeWidth=1;fillColor=#FFFFFF;strokeColor=#000000;" vertex="1" parent="1">
                    <mxGeometry x="485" y="-130" width="30" height="30" as="geometry"/>
                </mxCell>
                <mxCell id="25" value="" style="group" vertex="1" connectable="0" parent="1">
                    <mxGeometry x="30" y="370" width="560" height="110" as="geometry"/>
                </mxCell>
                <mxCell id="11" value="&lt;span style=&quot;white-space: pre&quot;&gt;&#9;&lt;/span&gt;Telefone" style="ellipse;whiteSpace=wrap;html=1;aspect=fixed;fontSize=21;align=left;strokeWidth=1;strokeColor=#000000;fillColor=#FFFFFF;opacity=10;" vertex="1" parent="25">
                    <mxGeometry x="360" y="60" width="30" height="30" as="geometry"/>
                </mxCell>
                <mxCell id="12" value="&lt;span style=&quot;white-space: pre&quot;&gt;&#9;&lt;/span&gt;Endereco" style="ellipse;whiteSpace=wrap;html=1;aspect=fixed;fontSize=21;align=left;strokeWidth=1;strokeColor=#000000;fillColor=#FFFFFF;opacity=10;" vertex="1" parent="25">
                    <mxGeometry x="360" y="20" width="30" height="30" as="geometry"/>
                </mxCell>
                <mxCell id="5" value="&lt;span style=&quot;white-space: pre&quot;&gt;&#9;&lt;/span&gt;Telefone" style="ellipse;whiteSpace=wrap;html=1;aspect=fixed;fontSize=21;align=left;strokeWidth=1;strokeColor=#000000;fillColor=#FFFFFF;opacity=10;" vertex="1" parent="25">
                    <mxGeometry x="30" y="60" width="30" height="30" as="geometry"/>
                </mxCell>
                <mxCell id="6" value="&lt;span style=&quot;white-space: pre&quot;&gt;&#9;&lt;/span&gt;Endereco" style="ellipse;whiteSpace=wrap;html=1;aspect=fixed;fontSize=21;align=left;strokeWidth=1;strokeColor=#000000;fillColor=#FFFFFF;opacity=10;" vertex="1" parent="25">
                    <mxGeometry x="30" y="20" width="30" height="30" as="geometry"/>
                </mxCell>
                <mxCell id="24" value="" style="rounded=0;whiteSpace=wrap;html=1;labelBackgroundColor=none;fontSize=21;fontColor=#FFFFFF;strokeColor=#000000;strokeWidth=1;fillColor=#FFFFFF;opacity=10;" vertex="1" parent="25">
                    <mxGeometry width="560" height="110" as="geometry"/>
                </mxCell>
                <mxCell id="26" style="edgeStyle=orthogonalEdgeStyle;html=1;fontSize=21;fontColor=#FFFFFF;exitX=1;exitY=0.5;exitDx=0;exitDy=0;curved=1;strokeWidth=6;" edge="1" parent="1" source="24">
                    <mxGeometry relative="1" as="geometry">
                        <mxPoint x="650" y="-100" as="targetPoint"/>
                        <Array as="points">
                            <mxPoint x="790" y="425"/>
                            <mxPoint x="790" y="-100"/>
                        </Array>
                    </mxGeometry>
                </mxCell>
            </root>
        </mxGraphModel>
    </diagram>
</mxfile>